<svg xmlns="http://www.w3.org/2000/svg" viewBox="0 0 64 64">
  <rect width="64" height="64" rx="16" fill="#fff7d6"/>
  <circle cx="22" cy="22" r="10" fill="#ffd45c"/>
  <path d="M22 5v7M22 32v7M5 22h7M32 22h7M10 10l5 5M34 34l5 5M34 10l-5 5M10 34l5-5" stroke="#f59e0b" stroke-width="4" stroke-linecap="round"/>
  <path d="M42 16v26.5a7.5 7.5 0 1 1-4-6.6V18.8l17-4.4v21.1a7.5 7.5 0 1 1-4-6.6V12.5L42 16z" fill="#1f4e78"/>
  <circle cx="31" cy="43" r="5" fill="#7fb3d5"/>
  <circle cx="50" cy="36" r="5" fill="#7fb3d5"/>
</svg>
